<?xml version="1.0" encoding="utf-8"?>
<!-- Generator: Adobe Illustrator 16.0.0, SVG Export Plug-In . SVG Version: 6.00 Build 0)  -->
<!DOCTYPE svg PUBLIC "-//W3C//DTD SVG 1.1//EN" "http://www.w3.org/Graphics/SVG/1.1/DTD/svg11.dtd">
<svg version="1.1" id="Layer_1" xmlns="http://www.w3.org/2000/svg" xmlns:xlink="http://www.w3.org/1999/xlink" x="0px" y="0px"
	 width="786.902px" height="299.963px" viewBox="0 0 786.902 299.963" enable-background="new 0 0 786.902 299.963"
	 xml:space="preserve">
<path d="M509.589,165.029h-59c-5.085,0-9.219,4.137-9.219,9.22v59c0,5.083,4.134,9.219,9.219,9.219h59
	c5.081,0,9.219-4.136,9.219-9.219v-59C518.808,169.166,514.67,165.029,509.589,165.029z M502.225,198.813
	c-0.418,0.038-0.843,0.063-1.271,0.063c-4.836,0-9.085-2.486-11.56-6.246c0,9.862,0,21.085,0,21.272
	c0,8.682-7.04,15.722-15.722,15.722c-8.683,0-15.723-7.04-15.723-15.722c0-8.683,7.04-15.721,15.723-15.721
	c0.327,0,0.647,0.028,0.972,0.049v7.747c-0.324-0.039-0.641-0.097-0.972-0.097c-4.433,0-8.023,3.59-8.023,8.022
	c0,4.434,3.591,8.023,8.023,8.023s8.347-3.491,8.347-7.922c0-0.177,0.076-36.128,0.076-36.128h7.407
	c0.695,6.62,6.039,11.846,12.723,12.324V198.813z"/>
<path fill="#03A9F4" d="M757.267,126.167c-2.438,1.08-5.063,1.8-7.832,2.141c2.816-1.669,4.98-4.334,5.996-7.481
	c-2.633,1.543-5.55,2.676-8.653,3.273c-2.478-2.627-6.015-4.257-9.929-4.257c-7.522,0-13.619,6.043-13.619,13.497
	c0,1.056,0.122,2.082,0.356,3.079c-11.318-0.569-21.354-5.949-28.07-14.112c-1.182,1.995-1.844,4.332-1.844,6.795
	c0,4.686,2.398,8.811,6.057,11.241c-2.232-0.068-4.335-0.69-6.176-1.686c0,0.041,0,0.101,0,0.158
	c0,6.547,4.696,11.999,10.922,13.239c-1.138,0.313-2.341,0.486-3.579,0.486c-0.879,0-1.735-0.101-2.567-0.248
	c1.735,5.349,6.763,9.26,12.719,9.377c-4.659,3.612-10.529,5.776-16.914,5.776c-1.103,0-2.183-0.062-3.248-0.191
	c6.031,3.819,13.194,6.058,20.879,6.058c25.049,0,38.751-20.569,38.751-38.413c0-0.583-0.018-1.167-0.047-1.743
	C753.144,131.27,755.448,128.888,757.267,126.167"/>
<g>
	<path fill="#FF3D00" d="M736.586,54.77c-0.738,3.871-3.871,6.82-7.742,7.375c-6.086,0.922-16.227,2.027-27.656,2.027
		c-11.248,0-21.389-1.105-27.656-2.027c-3.873-0.555-7.008-3.504-7.746-7.375c-0.736-4.242-1.474-10.51-1.474-18.254
		s0.737-14.012,1.474-18.254c0.738-3.871,3.873-6.82,7.746-7.375c6.082-0.922,16.223-2.027,27.656-2.027
		c11.43,0,21.387,1.105,27.656,2.027c3.871,0.555,7.004,3.504,7.742,7.375c0.738,4.242,1.66,10.51,1.66,18.254
		C738.063,44.26,737.324,50.527,736.586,54.77z"/>
	<path fill="#FFFFFF" d="M693.813,49.422V23.609l22.125,12.906L693.813,49.422z"/>
</g>
<g>
	<path fill="#29B6F6" d="M461.651,27.297c-20.367,0-36.875,16.51-36.875,36.875c0,20.366,16.508,36.875,36.875,36.875
		c20.364,0,36.875-16.509,36.875-36.875C498.526,43.807,482.016,27.297,461.651,27.297z"/>
	<path fill="#FFFFFF" d="M479.995,47.578l-6.906,35.264c0,0-0.295,1.611-2.294,1.611c-1.063,0-1.609-0.504-1.609-0.504
		l-14.961-12.415l-7.319-3.688l-9.396-2.5c0,0-1.671-0.482-1.671-1.865c0-1.152,1.72-1.701,1.72-1.701l39.301-15.612
		c0-0.004,1.202-0.435,2.077-0.433c0.537,0,1.152,0.23,1.152,0.922C480.089,47.117,479.995,47.578,479.995,47.578z"/>
	<path fill="#B0BEC5" d="M459.808,76.166l-6.316,6.221c0,0-0.277,0.212-0.643,0.221c-0.128,0.004-0.265-0.016-0.405-0.079
		l1.779-10.997L459.808,76.166z"/>
	<path fill="#CFD8DC" d="M472.523,53.47c-0.31-0.403-0.886-0.479-1.293-0.169l-24.329,14.559c0,0,3.882,10.865,4.473,12.744
		c0.594,1.884,1.069,1.927,1.069,1.927l1.779-10.997l18.128-16.771C472.758,54.453,472.833,53.877,472.523,53.47z"/>
</g>
<g>
	
		<linearGradient id="SVGID_1_" gradientUnits="userSpaceOnUse" x1="571.0205" y1="-478.4834" x2="627.4794" y2="-534.9423" gradientTransform="matrix(1 0 0 -1 -0.02 -367.8701)">
		<stop  offset="0" style="stop-color:#2AA4F4"/>
		<stop  offset="1" style="stop-color:#007AD9"/>
	</linearGradient>
	<path fill="url(#SVGID_1_)" d="M596.825,99.562c-20.365,0-36.875,16.51-36.875,36.876c0,20.365,16.51,36.875,36.875,36.875
		c20.366,0,36.876-16.51,36.876-36.875C633.701,116.071,617.191,99.562,596.825,99.562z"/>
	<path fill="#FFFFFF" d="M601.816,146.21h9.543l1.498-9.693h-11.041v-5.299c0-4.028,1.316-7.599,5.083-7.599h6.054v-8.459
		c-1.064-0.145-3.313-0.457-7.564-0.457c-8.875,0-14.078,4.687-14.078,15.365v6.45h-9.123v9.693h9.121v26.646
		c1.808,0.271,3.637,0.454,5.517,0.454c1.698,0,3.356-0.155,4.991-0.377V146.21z"/>
</g>
<g>
	<path fill="#304FFE" d="M669.607,235.979c-0.738,0.479-1.788,0.922-2.23,1.419c-0.166,0.165-0.258,0.349-0.222,0.534v1.9
		l-0.553,1.861l-0.553,1.844l-0.608,2.027l-1.254,4.148l-1.217,4.095l-0.922,3.079c0,0.479-0.019,0.957-0.056,1.418
		c-0.128,1.771-0.499,3.467-1.088,5.053c-0.351,0.976-0.775,1.918-1.291,2.802c-0.184,0.351-0.406,0.702-0.627,1.033
		c-0.737,1.161-1.623,2.231-2.6,3.171c-0.756,0.757-1.584,1.457-2.488,2.047c0,0,0,0-0.018,0c-0.148,0.13-0.313,0.24-0.499,0.332
		c-0.571,0.387-1.18,0.72-1.806,1.014c-0.426,0.222-0.851,0.405-1.293,0.572c-0.09,0.056-0.202,0.092-0.295,0.128
		c-1.051,0.499-2.268,0.83-3.482,0.997c-0.076,0.019-0.13,0.019-0.206,0.036c-0.736,0.13-1.454,0.24-2.192,0.296
		c-0.332,0.036-0.681,0.054-1.014,0.054l-1.31-0.072l-6.306-0.333c0-0.018-0.018,0-0.018,0l-3.173-0.165
		c-0.239,0-0.497,0-0.738-0.019c-0.993-0.038-1.951-0.147-2.911-0.351c-0.02,0-0.02,0-0.02,0c-1.75-0.332-3.429-0.922-4.995-1.715
		c-0.868-0.442-1.716-0.939-2.508-1.512c-0.333-0.24-0.646-0.497-0.96-0.774c-0.884-0.738-1.678-1.53-2.414-2.341
		c-0.11-0.111-0.204-0.222-0.296-0.331c-0.109-0.112-0.222-0.241-0.313-0.352c-0.7-0.886-1.291-1.788-1.77-2.748
		c-0.443-0.848-0.792-1.751-1.069-2.747c-0.112-0.352-0.202-0.683-0.277-1.05c-0.019-0.018-0.036-0.056-0.036-0.094
		c-0.184-0.756-0.35-1.549-0.443-2.341c-0.109-0.608-0.165-1.217-0.165-1.844c-0.036-0.239-0.036-0.497-0.036-0.738l3.521-5.438
		l3.446-5.312l1.566-2.414l1.421-2.178l0.48-0.754v-1.899c0.036-0.425,0.055-0.866,0.036-1.271c-0.018-1.293-0.277-2.546-0.7-3.743
		c-0.405-1.273-0.978-2.473-1.568-3.578c-0.698-1.271-1.437-2.414-2.045-3.446c-0.904-1.512-1.531-2.747-1.365-3.615
		c1.329-0.313,2.729-0.479,4.148-0.479h29.5c7.706,0,14.344,4.793,17.091,11.541C669.165,234.448,669.424,235.204,669.607,235.979z"
		/>
	<path fill="#4928F4" d="M670.216,240.624v0.497l-2.544,1.477l-1.622,0.939l-1.79,1.033l-3.576,2.082l-3.504,2.029l-3.575,2.064
		l-1.419,0.829c0,0.886-0.224,1.695-0.629,2.434c-0.57,1.069-1.53,1.956-2.745,2.712c-1.235,0.756-2.748,1.363-4.444,1.806
		c0,0,0-0.018-0.018,0c-6.565,1.696-15.526,0.922-19.878-2.322c-1.218-0.904-2.063-2.012-2.433-3.282
		c-0.11-0.425-0.168-0.886-0.168-1.347v-13.256c0.021-0.277-0.165-0.553-0.497-0.83c-0.993-0.792-3.336-1.549-5.956-2.305
		c-2.045-0.571-4.238-1.144-6.082-1.696c-1.458-0.441-2.693-0.884-3.43-1.309c0.331-0.646,0.718-1.291,1.125-1.898
		c2.58-3.781,6.525-6.564,11.099-7.616c1.329-0.313,2.729-0.479,4.148-0.479h19.912c9.901,1.731,19.028,5.771,26.679,11.541
		c0.296,0.721,0.555,1.477,0.738,2.251c0.331,1.217,0.535,2.471,0.591,3.779C670.216,240.033,670.216,240.328,670.216,240.624z"/>
	<path fill="#6200EA" d="M670.216,240.624v8.131l-0.406,1.253l-1.383,4.297l-1.438,4.426l-0.756,2.358l-0.7,2.194l-0.683,2.084
		l-0.663,2.064l-0.351,1.088l-0.461,1.438c0,1.401-0.038,2.637-0.128,3.688c-0.02,0.112-0.038,0.222-0.038,0.332
		c-0.109,0.978-0.258,1.808-0.498,2.508c-0.019,0.109-0.055,0.222-0.093,0.313c-0.479,1.327-1.197,2.175-2.267,2.728
		c-0.259,0.147-0.555,0.26-0.868,0.369c-0.976,0.333-2.211,0.499-3.724,0.591c-1.105,0.073-2.378,0.092-3.816,0.092h-1.271
		l-2.195-0.092l-0.387-0.021l-4.001-0.165l-4.057-0.166l-13.367-0.553l-3.466-0.147h-0.479c-1.439-0.018-2.674-0.109-3.744-0.258
		c-1.548-0.239-2.745-0.645-3.649-1.253c-1.293-0.83-2.047-2.047-2.49-3.743c-0.109-0.405-0.203-0.83-0.257-1.291
		c-0.184-1.069-0.277-2.305-0.332-3.688c0-0.277,0-0.553-0.02-0.849c-0.018-0.018,0-0.018,0-0.018v-1.069
		c-0.018-0.535-0.018-1.09-0.018-1.66l0.092-2.969l0.056-2.12l0.073-2.47v-0.352l0.13-4.535l0.128-4.536l0.13-4.258l0.109-4.187
		l0.038-1.105c0-0.572-1.936-0.903-4.093-1.181c-1.716-0.22-3.598-0.424-4.721-0.681c0.094-0.425,0.184-0.851,0.295-1.255
		c0.331-1.327,0.828-2.581,1.457-3.779c0.331-0.646,0.718-1.291,1.125-1.898c3.983-1.754,8.132-3.116,12.464-4.002
		c3.797-0.793,7.762-1.216,11.854-1.216c13.568,0,26.107,4.59,36.027,12.334c0.959,0.738,1.899,1.53,2.821,2.36
		C670.216,240.033,670.216,240.328,670.216,240.624z"/>
	<path fill="#673AB7" d="M670.216,244.994v8.37l-1.014,1.954l-1.936,3.779l-1.033,1.991l-0.94,1.825l-0.406,0.793
		c0,0.572,0,1.125-0.036,1.66c0,0.792-0.036,1.548-0.092,2.25c-0.074,0.829-0.186,1.585-0.296,2.285
		c-0.275,1.457-0.664,2.71-1.215,3.743c-0.075,0.13-0.147,0.258-0.224,0.367c-0.201,0.334-0.442,0.646-0.698,0.942
		c-0.333,0.405-0.702,0.754-1.127,1.05c-0.627,0.48-1.363,0.867-2.212,1.163c-1.051,0.385-2.269,0.645-3.705,0.792
		c-0.939,0.092-1.974,0.147-3.097,0.147l-0.776,0.036l-3.833,0.222h-0.021l-4.074,0.239l-4.148,0.241l-5.715,0.331l-6.952,0.405
		l-1.014,0.056c-0.939,0-1.825-0.056-2.674-0.165c-0.092-0.019-0.165-0.038-0.257-0.038c-1.254-0.203-2.398-0.535-3.431-0.996
		c-1.253-0.553-2.343-1.289-3.265-2.175c-0.81-0.792-1.51-1.696-2.081-2.712c-0.13-0.237-0.259-0.461-0.371-0.718
		c-0.551-1.088-0.993-2.305-1.325-3.632c-0.058-0.222-0.111-0.461-0.147-0.7c-0.111-0.424-0.203-0.866-0.259-1.327
		c-0.202-1.182-0.313-2.435-0.367-3.743v-0.021c-0.021-0.532-0.038-1.05-0.038-1.603l-0.904-2.156l-0.128-0.332l-0.111-0.277
		l-1.383-3.3l-0.222-0.535l-1.327-3.19l-1.477-3.558c0,0,0,0-0.018,0l-1.492-3.596l-0.535-1.31v-2.931
		c0-1.161,0.111-2.305,0.313-3.41c0.094-0.425,0.184-0.851,0.295-1.255c1.566-0.902,3.209-1.732,4.887-2.471
		c3.835-1.714,7.946-2.987,12.204-3.762c3.173-0.57,6.471-0.886,9.81-0.886c13.479,0,25.701,4.887,35.253,12.853
		c0.369,0.295,0.719,0.591,1.069,0.904C668.538,243.354,669.386,244.146,670.216,244.994z"/>
	<path fill="#8E24AA" d="M670.216,250.487v9.478l-1.051,2.193l-1.992,4.148l-0.018,0.056c0,0.794-0.036,1.513-0.092,2.157
		c-0.186,2.121-0.7,3.466-1.549,4.296c-0.608,0.627-1.364,0.978-2.305,1.162c-0.056,0.018-0.13,0.018-0.186,0.035
		c-0.295,0.058-0.608,0.094-0.939,0.094c-1.142,0.11-2.488,0.036-4.037-0.073c-0.166,0-0.351-0.021-0.536-0.038
		c-1.124-0.072-2.323-0.147-3.65-0.202c-0.718-0.018-1.475-0.037-2.249-0.037h-0.035l-1.864,0.147h-0.018l-4.187,0.295l-4.775,0.369
		l-0.7,0.055l-5.587,0.406l-2.896,0.222l-2.855,0.203c-0.499,0-0.978,0-1.458-0.02c0,0-0.019-0.018-0.019,0
		c-2.083-0.038-3.944-0.165-5.603-0.479c-1.531-0.258-2.878-0.665-4.021-1.273c-1.179-0.57-2.156-1.383-2.951-2.414
		c-0.754-1.014-1.307-2.287-1.658-3.817c0-0.019,0-0.019,0-0.019c-0.257-1.234-0.404-2.673-0.404-4.296l-0.277-0.498l-1.641-2.932
		l-0.239-0.405l-0.13-0.258L608.58,256l-0.851-1.53l-1.069-1.897l-1.844-3.303l-0.976-1.731v-6.784
		c1.622-1.07,3.301-2.01,5.034-2.859c2.102-1.07,4.276-1.972,6.543-2.71c2.473-0.813,5.053-1.457,7.69-1.88
		c2.674-0.443,5.422-0.664,8.241-0.664c12.539,0,24.043,4.479,32.91,11.93c0.407,0.313,0.794,0.663,1.182,0.994
		c1.548,1.383,3.022,2.877,4.368,4.443C669.957,250.174,670.104,250.321,670.216,250.487z"/>
	<path fill="#C2185B" d="M670.216,256.683v13.33c-0.442-0.258-1.051-0.571-1.808-0.902c-0.405-0.203-0.866-0.405-1.345-0.591
		c-0.7-0.313-1.457-0.608-2.305-0.902c-0.186-0.075-0.369-0.129-0.571-0.186c-0.333-0.129-0.684-0.239-1.033-0.351
		c-1.088-0.331-2.287-0.645-3.54-0.922c-0.479-0.092-0.976-0.184-1.475-0.258c-1.604-0.275-3.318-0.442-5.108-0.461
		c-0.147-0.018-0.313-0.018-0.461-0.018l-4.738,0.036l-6.453,0.037h-0.019l-13.811,0.11c-4.386,0-7.079,1.052-8.699,1.475
		c0,0-0.021,0-0.021,0.018c-1.714,0.443-2.249,0.168-2.396-2.837c-0.036-0.83-0.056-1.9-0.056-3.209l-1.031-0.792l-1.809-1.365
		l-1.105-0.848l-0.221-0.168l-3.062-2.322l-0.461-0.35l-0.96-0.738l-1.768-1.327l-2.121-1.622v-6.27
		c0.184-0.147,0.35-0.277,0.535-0.387c2.674-1.844,5.531-3.41,8.554-4.684c2.694-1.142,5.531-2.045,8.444-2.691
		c0.793-0.166,1.604-0.331,2.435-0.441c2.452-0.425,4.977-0.628,7.541-0.628c11.08,0,21.259,3.854,29.334,10.232
		c1.218,0.959,2.396,1.973,3.504,3.061c1.511,1.438,2.932,2.969,4.239,4.592c0.259,0.331,0.518,0.664,0.775,1.014
		C669.554,255.761,669.885,256.222,670.216,256.683z"/>
	<path fill="#D81B60" d="M670.216,264.076v6.048c0,1.199-0.111,2.379-0.331,3.521c-0.331,1.696-0.904,3.318-1.678,4.831
		c-0.407,0.092-0.868,0.092-1.383,0.019c-1.163-0.204-2.526-0.813-4.001-1.604c-0.074-0.019-0.147-0.055-0.204-0.092
		c-0.461-0.239-0.939-0.499-1.42-0.794c-0.977-0.533-2.01-1.124-3.041-1.677c-0.222-0.111-0.441-0.222-0.646-0.333
		c-1.178-0.608-2.396-1.161-3.612-1.585c0,0,0,0-0.018,0c-0.26-0.093-0.537-0.184-0.813-0.259c-1.052-0.295-2.121-0.479-3.152-0.479
		l-2.027-0.591l-8.981-2.601c0,0,0,0-0.019,0l-5.513-1.603h-0.019l-2.396-0.702c-6.932,0-11.189,2.951-13.257,1.826
		c-0.811-0.423-1.289-1.493-1.455-3.594c-0.056-0.591-0.075-1.255-0.075-2.029l-2.157-1.05l-0.09-0.038h-0.021l-1.548-0.774
		l-1.696-0.812l-0.13-0.054l-0.313-0.166l-3.613-1.752l-2.766-1.347v-6.323c0.313-0.277,0.645-0.535,0.976-0.795
		c0.354-0.275,0.702-0.532,1.052-0.81c0.018,0,0.018,0,0.018,0c2.178-1.566,4.482-2.949,6.935-4.093
		c2.857-1.365,5.9-2.416,9.051-3.099c0.461-0.11,0.942-0.22,1.421-0.296c2.62-0.496,5.31-0.754,8.058-0.754
		c9.716,0,18.64,3.152,25.83,8.463c2.085,1.548,4.02,3.264,5.791,5.126c1.455,1.53,2.802,3.188,4.019,4.923
		c0.092,0.129,0.184,0.257,0.277,0.367c0.681,0.997,1.308,2.009,1.898,3.061C669.554,262.785,669.885,263.432,670.216,264.076z"/>
	<path fill="#F50057" d="M669.885,273.646c-0.331,1.696-0.904,3.318-1.678,4.831c-0.35,0.683-0.738,1.327-1.163,1.954
		c-0.256,0.387-0.533,0.756-0.811,1.105c-0.663-0.258-1.641-0.627-2.84-1.032c0,0,0,0,0-0.018c-0.902-0.313-1.936-0.646-3.041-0.96
		c-0.313-0.092-0.627-0.184-0.96-0.275c-1.309-0.352-2.674-0.664-4-0.848c-1.107-0.185-2.195-0.296-3.207-0.296l-0.85-0.239h-0.019
		l-4.462-1.291l-2.747-0.792l-3.062-0.886h-0.018l-0.996-0.277l-12.04-3.465l-3.464-0.997l-2.582-0.608l-4.204-0.994l-0.518-0.13
		c0,0,0,0-0.018,0l-4.223-0.978c0-0.019,0-0.019,0-0.019l-0.756-0.165l-0.387-0.092l-3.079-0.721l-0.35-0.092l-2.618-2.157
		l-1.955-1.64v-7.522c0.683-0.665,1.383-1.291,2.121-1.9c0.22-0.203,0.461-0.387,0.698-0.57c0.224-0.186,0.461-0.369,0.702-0.555
		c1.679-1.271,3.446-2.414,5.328-3.393c2.396-1.289,4.942-2.322,7.614-3.061c0.517-0.166,1.034-0.313,1.566-0.423
		c3.025-0.757,6.198-1.144,9.479-1.144c8.243,0,15.911,2.488,22.255,6.748c3.152,2.121,5.992,4.664,8.389,7.559
		c1.217,1.457,2.322,2.987,3.3,4.609c0.092,0.13,0.166,0.24,0.24,0.369c0.589,0.979,1.143,1.992,1.64,3.023
		c0.461,0.922,0.868,1.844,1.235,2.804C668.999,270.585,669.478,272.098,669.885,273.646z"/>
	<path fill="#FF1744" d="M667.044,280.431c-0.256,0.387-0.533,0.756-0.811,1.105c-0.811,1.016-1.696,1.938-2.692,2.747
		c-0.865,0.721-1.787,1.365-2.766,1.918c-0.369-0.092-0.736-0.204-1.125-0.35c-1.217-0.425-2.488-1.125-3.669-1.863
		c-1.769-1.124-3.299-2.341-3.981-2.894c-0.258-0.222-0.388-0.333-0.388-0.333l-3.135-0.275l-0.387-0.038l-4.057-0.35l-4.204-0.369
		l-6.212-0.553l-9.846-0.867l-0.037-0.019l-3.467-1.678l-3.504-1.696l-2.819-1.365l-0.608-0.293l-0.756-0.369l-2.618-1.271
		l-3.486-1.678l-1.087-0.537l-1.549-0.479v-8.241c0.868-1.031,1.79-2.01,2.766-2.949c0.627-0.591,1.291-1.18,1.974-1.734
		c0.109-0.092,0.22-0.184,0.331-0.257c0.074-0.092,0.166-0.147,0.239-0.186c1.09-0.884,2.231-1.678,3.412-2.396
		c1.365-0.866,2.802-1.641,4.296-2.285c1.603-0.72,3.281-1.329,5.013-1.79c3.007-0.848,6.198-1.289,9.479-1.289
		c7.522,0,14.473,2.285,20.207,6.212c3.67,2.509,6.841,5.679,9.349,9.349c0.83,1.18,1.566,2.435,2.249,3.724
		c0.239,0.479,0.479,0.96,0.683,1.438c0.222,0.461,0.423,0.922,0.626,1.383c0.388,0.96,0.737,1.918,1.052,2.913
		c0.589,1.844,1.032,3.726,1.31,5.68C666.916,279.141,666.989,279.786,667.044,280.431z"/>
	<path fill="#FF5722" d="M663.562,283.805c0,0.147,0,0.313-0.021,0.479c-0.865,0.721-1.787,1.365-2.766,1.918
		c-0.405,0.222-0.812,0.442-1.234,0.628c-0.424,0.202-0.849,0.386-1.291,0.551c-0.627-0.331-1.475-0.736-2.377-1.123
		c-1.274-0.572-2.657-1.088-3.726-1.253c-0.258-0.056-0.499-0.076-0.719-0.076l-3.024-0.385h-0.036l-3.763-0.499l-3.798-0.499
		l-1.77-0.22l-13.94-1.808c-0.901,0-1.861-0.054-2.855-0.184c-1.217-0.111-2.49-0.295-3.763-0.553
		c-1.254-0.222-2.524-0.517-3.742-0.83c-1.271-0.295-2.525-0.645-3.688-0.978c-1.347-0.405-2.6-0.792-3.651-1.144
		c-0.866-0.275-1.603-0.533-2.175-0.736c-0.331-0.794-0.608-1.622-0.811-2.472c-0.389-1.438-0.572-2.949-0.572-4.498v-3.079
		c0.591-0.978,1.235-1.936,1.955-2.84c1.308-1.733,2.802-3.318,4.424-4.719c0.057-0.075,0.128-0.13,0.186-0.166l0.019-0.02
		c0.57-0.517,1.161-0.978,1.788-1.421c0.073-0.071,0.147-0.128,0.221-0.184c0.296-0.22,0.609-0.442,0.94-0.645
		c2.636-1.789,5.549-3.19,8.666-4.13c2.951-0.886,6.065-1.347,9.311-1.347c6.435,0,12.445,1.899,17.462,5.146
		c3.705,2.377,6.894,5.512,9.328,9.181c0.294,0.424,0.571,0.849,0.848,1.291c1.271,2.157,2.323,4.48,3.098,6.914
		c0.094,0.277,0.166,0.553,0.241,0.849c0.146,0.498,0.275,1.014,0.386,1.53c0.037,0.128,0.075,0.258,0.111,0.405
		c0.257,1.161,0.442,2.378,0.57,3.596c0,0.018,0,0.018,0,0.018C663.504,281.592,663.562,282.699,663.562,283.805z"/>
	<path fill="#FF6F00" d="M659.762,283.805c0,0.645-0.036,1.347-0.111,2.047c-0.036,0.331-0.072,0.664-0.109,0.978
		c-0.424,0.202-0.849,0.386-1.291,0.551c-0.829,0.313-1.679,0.573-2.545,0.757c-0.589,0.13-1.197,0.241-1.806,0.295h-0.018
		c-0.573-0.349-1.235-0.774-1.92-1.253c-1.235-0.868-2.524-1.844-3.558-2.636c-0.019-0.019-0.019-0.019-0.036-0.038
		c-1.088-0.83-1.861-1.457-1.861-1.457l-1.956,0.074l-3.761,0.13l-1.752,0.073l-7.044,0.258l-5.954,0.222
		c-0.388,0.018-0.849,0.018-1.421,0h-0.019c-0.773-0.019-1.695-0.074-2.709-0.166c-1.18-0.094-2.471-0.203-3.779-0.331
		c-1.273-0.147-2.564-0.295-3.8-0.443c-1.364-0.147-2.653-0.313-3.759-0.461c-0.868-0.111-1.625-0.203-2.233-0.277
		c-0.515-0.59-0.976-1.199-1.419-1.861c-0.664-0.996-1.234-2.046-1.678-3.173c-0.331-0.792-0.608-1.62-0.811-2.47
		c0.533-1.641,1.235-3.189,2.063-4.682c0.665-1.218,1.438-2.381,2.287-3.486c0.83-1.087,1.731-2.101,2.712-3.022v-0.021
		c0.275-0.275,0.551-0.532,0.828-0.773c0.517-0.479,1.051-0.922,1.604-1.346h0.021c0.018-0.037,0.036-0.037,0.054-0.056
		c0.443-0.35,0.904-0.662,1.365-0.976c2.729-1.862,5.809-3.245,9.125-4.057c2.194-0.535,4.499-0.83,6.878-0.83
		c4.683,0,9.107,1.123,13,3.152h0.018c3.337,1.716,6.288,4.075,8.664,6.914c1.312,1.511,2.435,3.171,3.356,4.923
		c0.645,1.18,1.199,2.415,1.66,3.67c0.036,0.109,0.072,0.203,0.11,0.293c0.313,0.922,0.589,1.882,0.829,2.842
		c0.166,0.681,0.296,1.383,0.405,2.083c0.038,0.222,0.074,0.423,0.092,0.645C659.669,281.169,659.762,282.478,659.762,283.805z"/>
	<path fill="#FF9800" d="M655.981,283.805v0.184c0,0.626-0.055,1.421-0.108,2.269c-0.058,0.627-0.112,1.271-0.168,1.88
		c-0.589,0.13-1.197,0.241-1.806,0.295h-0.018c-0.702,0.094-1.383,0.13-2.104,0.13h-3.227l-0.7-0.202l-3.632-1.106l-3.688-1.107
		l-8.538-2.563l-3.688-1.105c0,0-1.53,0.608-3.688,1.327h-0.019c-0.828,0.277-1.731,0.572-2.691,0.867
		c-1.197,0.35-2.471,0.699-3.726,0.977c-1.289,0.295-2.56,0.517-3.705,0.608c-0.35,0.036-0.698,0.056-1.012,0.056
		c-1.034-0.57-2.029-1.255-2.934-2.011c-0.792-0.663-1.53-1.383-2.213-2.176c-0.515-0.59-0.976-1.199-1.419-1.861
		c0.13-0.83,0.277-1.643,0.497-2.435c0.555-2.193,1.421-4.296,2.564-6.212c0.626-1.087,1.327-2.139,2.139-3.116
		c0.019-0.056,0.072-0.11,0.128-0.148c-0.018-0.018,0-0.018,0-0.018c0.239-0.315,0.499-0.608,0.756-0.886c0-0.019,0-0.019,0-0.019
		c0.757-0.812,1.531-1.586,2.379-2.305c0.295-0.239,0.572-0.479,0.886-0.718c0.054-0.056,0.11-0.094,0.184-0.147
		c4.148-3.173,9.331-5.089,14.916-5.089c6.342,0,12.114,2.377,16.482,6.288c2.103,1.897,3.893,4.166,5.237,6.69
		c0.11,0.186,0.222,0.389,0.313,0.591c0.165,0.331,0.331,0.683,0.479,1.051c0.608,1.327,1.09,2.73,1.421,4.167
		c0.036,0.147,0.072,0.295,0.11,0.443c0.147,0.68,0.275,1.383,0.368,2.083C655.909,281.573,655.981,282.681,655.981,283.805z"/>
	<path fill="#FFC107" d="M652.186,283.805c0,0.369-0.021,0.774-0.038,1.199c-0.038,0.681-0.092,1.419-0.186,2.175
		c-0.036,0.461-0.109,0.922-0.184,1.383h-10.104l-1.954-0.313l-7.632-1.217L631,286.865l-2.49-0.407
		c-1.087,0-3.448,0.481-5.937,0.942c-1.309,0.239-2.636,0.498-3.835,0.664c-0.147,0.019-0.295,0.036-0.425,0.054h-0.018
		c-1.289-0.277-2.545-0.7-3.724-1.253c-0.369-0.165-0.738-0.35-1.105-0.553c-1.034-0.572-2.029-1.255-2.934-2.011
		c-0.018-0.22-0.038-0.405-0.038-0.497c0-0.479,0.021-0.94,0.059-1.401c0.071-1.181,0.237-2.322,0.496-3.43
		c0.405-1.677,0.996-3.301,1.788-4.793c0.147-0.313,0.313-0.629,0.499-0.922c0.072-0.147,0.166-0.277,0.237-0.425
		c0.333-0.535,0.702-1.05,1.069-1.566c0.774-1.014,1.643-1.974,2.564-2.84c0.018,0,0.018,0,0.018,0
		c0.074-0.074,0.148-0.147,0.222-0.203c0.092-0.074,0.168-0.166,0.258-0.222c0.371-0.331,0.738-0.627,1.125-0.904
		c0-0.018,0.021-0.018,0.021-0.018c3.481-2.6,7.798-4.131,12.499-4.131c3.651,0,7.044,0.922,10.011,2.546h0.019
		c2.546,1.401,4.757,3.301,6.511,5.586c0.68,0.886,1.289,1.825,1.806,2.821h0.018c0.092,0.186,0.186,0.369,0.276,0.553
		c0.554,1.088,0.997,2.232,1.328,3.412h0.019c0.018,0.092,0.056,0.184,0.073,0.275c0.222,0.794,0.405,1.604,0.535,2.435
		c0.018,0.165,0.036,0.349,0.056,0.517C652.128,281.979,652.186,282.883,652.186,283.805z"/>
	<path fill="#FFD54F" d="M648.404,283.603c0,0.294,0,0.608-0.036,0.902v0.02c0,0.019,0,0.019,0,0.019
		c-0.038,1.327-0.224,2.636-0.517,3.816c0,0.072-0.02,0.128-0.056,0.202h-8.61l-7.098-1.53l-0.94-0.202L631,286.865l-7.874,1.622
		l-0.351,0.074h-0.497c-1.182,0-2.341-0.111-3.466-0.331c-0.168-0.038-0.333-0.074-0.499-0.112h-0.018
		c-1.289-0.277-2.545-0.7-3.724-1.253c-0.038-0.203-0.076-0.407-0.094-0.608c-0.128-0.792-0.184-1.622-0.184-2.452
		c0-0.313,0-0.627,0.018-0.94c0.056-0.995,0.204-1.973,0.425-2.913c0.148-0.7,0.35-1.383,0.591-2.027
		c0.202-0.572,0.443-1.125,0.698-1.66c0.224-0.461,0.481-0.903,0.738-1.347c0.26-0.423,0.535-0.828,0.83-1.235
		c0.736-1.014,1.604-1.953,2.563-2.783c0.555-0.479,1.163-0.94,1.79-1.347c2.689-1.769,5.916-2.802,9.402-2.802
		c0.683,0,1.347,0.036,1.991,0.129h0.036c1.974,0.22,3.817,0.774,5.513,1.603c0.019,0,0.019,0,0.019,0
		c2.676,1.312,4.942,3.284,6.601,5.717c0.277,0.405,0.555,0.849,0.792,1.291c0.206,0.35,0.39,0.719,0.555,1.088
		c0.26,0.572,0.497,1.181,0.7,1.788h0.021c0.201,0.683,0.385,1.364,0.515,2.083v0.018
		C648.293,281.481,648.404,282.533,648.404,283.603z"/>
	<path fill="#FFE082" d="M644.605,283.988v0.056c0,1.089-0.128,2.157-0.386,3.209c-0.094,0.442-0.224,0.884-0.389,1.309h-8.26
		l-4.222-1.161l-4.223,1.161h-4.849c-1.182,0-2.341-0.111-3.466-0.331c-0.038-0.056-0.056-0.112-0.074-0.166
		c-0.259-0.794-0.461-1.586-0.555-2.416c-0.071-0.535-0.107-1.088-0.107-1.66c0-0.22,0-0.461,0.036-0.681
		c0.018-0.868,0.147-1.716,0.367-2.526c0.111-0.553,0.277-1.089,0.498-1.604c0.074-0.259,0.186-0.497,0.313-0.738
		c0.275-0.626,0.608-1.234,0.978-1.825c0.405-0.589,0.849-1.142,1.348-1.658c0.588-0.665,1.253-1.273,2.009-1.771
		c1.289-0.939,2.766-1.642,4.368-2.027c1.069-0.295,2.195-0.442,3.356-0.442c3.688,0,6.987,1.475,9.384,3.853
		c0.094,0.092,0.204,0.202,0.296,0.332h0.018c0.26,0.276,0.499,0.554,0.738,0.867c0.683,0.866,1.253,1.807,1.696,2.838
		c0.222,0.479,0.407,0.978,0.553,1.494c0.02,0.074,0.038,0.13,0.056,0.202c0.26,0.903,0.425,1.844,0.461,2.821
		C644.587,283.399,644.605,283.692,644.605,283.988z"/>
	<path fill="#FFECB3" d="M640.827,283.988c0,0.756-0.094,1.477-0.295,2.157c-0.186,0.738-0.461,1.438-0.813,2.103
		c-0.056,0.111-0.185,0.313-0.185,0.313h-16.371c-0.018-0.018-0.038-0.056-0.038-0.074c-0.221-0.351-0.404-0.7-0.553-1.087
		c-0.369-0.849-0.59-1.771-0.664-2.729c-0.038-0.223-0.038-0.461-0.038-0.684c0-0.11,0-0.238,0.021-0.35
		c0.018-0.811,0.127-1.586,0.351-2.305c0.184-0.664,0.423-1.271,0.736-1.861c0,0,0.021-0.019,0.021-0.038
		c0.219-0.387,0.461-0.774,0.736-1.144c0.901-1.217,2.101-2.211,3.483-2.857c0.019,0,0.019,0,0.019,0
		c0.442-0.222,0.903-0.405,1.383-0.534c0,0,0,0,0.02,0c0.848-0.258,1.77-0.388,2.71-0.388c1.087,0,2.139,0.166,3.097,0.517
		c0.352,0.092,0.685,0.24,1.016,0.405c0,0,0,0,0.018,0c1.585,0.757,2.932,1.936,3.854,3.412c0.184,0.275,0.35,0.571,0.497,0.884
		c0.075,0.13,0.147,0.275,0.203,0.405c0.424,0.96,0.683,2.01,0.757,3.117c0.018,0.092,0.018,0.184,0.018,0.295
		C640.827,283.692,640.827,283.841,640.827,283.988z"/>
	<g>
		<path fill="none" stroke="#FFFFFF" stroke-width="2" stroke-linecap="round" stroke-linejoin="round" stroke-miterlimit="10" d="
			M648.091,231.405h-22.125c-7.191,0-12.906,5.715-12.906,12.906v22.125c0,7.191,5.715,12.906,12.906,12.906h22.125
			c7.191,0,12.906-5.715,12.906-12.906v-22.125C660.997,237.12,655.282,231.405,648.091,231.405z"/>
		<circle fill="#FFFFFF" cx="649.935" cy="240.624" r="1.844"/>
	</g>
	<g>
		
			<circle fill="none" stroke="#FFFFFF" stroke-width="2" stroke-linecap="round" stroke-linejoin="round" stroke-miterlimit="10" cx="637.028" cy="255.374" r="11.063"/>
	</g>
</g>
</svg>
